<?xml version="1.0" encoding="utf-8"?>
<svg style="background-color:white" preserveAspectRatio="xMidYMid meet" viewBox="0 0 400.000000 400.000000" height="400.000000pt" width="400.000000pt" xmlns="http://www.w3.org/2000/svg" version="1.0">

<g stroke="none" fill="#000000" transform="translate(0.000000,400.000000) scale(0.100000,-0.100000)">
<path d="M1515 3694 c-11 -2 -58 -12 -105 -21 -47 -9 -86 -17 -88 -19 -3 -2
184 -431 231 -528 l24 -49 130 2 c72 1 159 -3 194 -9 35 -6 74 -13 87 -15 61
-10 197 -62 284 -108 328 -173 545 -489 598 -872 12 -87 1 -277 -20 -375 -49
-218 -169 -432 -324 -579 l-57 -53 107 -242 c111 -252 146 -329 150 -334 5 -7
88 56 174 130 267 232 471 573 556 928 21 87 44 296 44 395 -1 173 -36 389
-91 554 -101 303 -274 562 -518 773 -244 211 -509 340 -830 402 -116 23 -155
26 -329 25 -108 -1 -206 -3 -217 -5z"></path>
<path d="M917 2728 c-91 -94 -138 -161 -195 -274 -41 -83 -87 -211 -97 -274
-3 -19 -10 -59 -15 -89 -13 -71 -13 -222 0 -292 5 -30 12 -67 14 -84 7 -59 49
-182 92 -268 199 -400 585 -640 1032 -641 72 0 136 4 141 10 8 8 -46 139 -150
362 -11 24 -71 159 -133 300 -110 249 -146 329 -187 421 -11 24 -65 145 -120
270 -55 124 -109 244 -119 266 -32 67 -84 185 -125 282 -22 51 -44 93 -50 93
-5 0 -45 -37 -88 -82z"></path>
<path d="M3337 718 c8 -42 13 -48 13 -17 0 14 5 30 12 37 9 9 7 12 -10 12 -19
0 -21 -4 -15 -32z"></path>
<path d="M3381 708 c1 -20 3 -26 6 -14 4 15 7 16 13 5 5 -7 12 -11 15 -7 7 7
-16 48 -27 48 -5 0 -7 -15 -7 -32z"></path>
<path d="M3421 728 c0 -7 4 -22 9 -33 7 -17 9 -15 9 13 1 17 -3 32 -9 32 -5 0
-10 -6 -9 -12z"></path>
</g>
</svg>
